<?xml version="1.0" encoding="UTF-8" standalone="no"?>
<!DOCTYPE svg PUBLIC "-//W3C//DTD SVG 1.1//EN" "http://www.w3.org/Graphics/SVG/1.1/DTD/svg11.dtd">
<svg width="100%" height="100%" viewBox="0 0 16 16" version="1.1" xmlns="http://www.w3.org/2000/svg" xmlns:xlink="http://www.w3.org/1999/xlink" xml:space="preserve" xmlns:serif="http://www.serif.com/" style="fill-rule:evenodd;clip-rule:evenodd;stroke-linejoin:round;stroke-miterlimit:2;">
    <g transform="matrix(0.03125,0,0,0.03125,0,0)">
        <path d="M256,411.12L0,202.667L256,0L256,411.12Z" style="fill:rgb(66,133,244);fill-rule:nonzero;"/>
    </g>
    <g transform="matrix(0.03125,0,0,0.03125,0,0)">
        <path d="M256,411.12L512,202.667L256,0L256,411.12Z" style="fill:rgb(53,106,195);fill-rule:nonzero;"/>
    </g>
    <g transform="matrix(0.03125,0,0,0.03125,0,0)">
        <circle cx="256" cy="362.667" r="149.333" style="fill:rgb(160,195,255);"/>
    </g>
    <g transform="matrix(0.03125,0,0,0.03125,0,0)">
        <path d="M121.037,298.667C145.005,248.214 196.429,213.333 256,213.333C315.571,213.333 366.995,248.214 390.963,298.667L121.037,298.667Z" style="fill:rgb(118,167,250);fill-rule:nonzero;"/>
    </g>
</svg>
