<?xml version="1.0" encoding="UTF-8" standalone="no"?><!DOCTYPE svg PUBLIC "-//W3C//DTD SVG 1.1//EN" "http://www.w3.org/Graphics/SVG/1.1/DTD/svg11.dtd"><svg width="100%" height="100%" viewBox="0 0 80 23" version="1.1" xmlns="http://www.w3.org/2000/svg" xmlns:xlink="http://www.w3.org/1999/xlink" xml:space="preserve" xmlns:serif="http://www.serif.com/" style="fill-rule:evenodd;clip-rule:evenodd;stroke-linejoin:round;stroke-miterlimit:1.41421;"><g><path d="M14.235,2.078c-0.334,-1.027 -1.437,-1.589 -2.464,-1.255c-1.027,0.334 -1.589,1.437 -1.255,2.464l5.056,15.556c0.347,0.959 1.383,1.498 2.378,1.212c1.038,-0.299 1.671,-1.401 1.339,-2.42c-0.012,-0.039 -5.054,-15.557 -5.054,-15.557Z" style="fill:#e9a823;fill-rule:nonzero;"/><path d="M6.401,4.624c-0.334,-1.027 -1.437,-1.589 -2.464,-1.256c-1.027,0.334 -1.589,1.437 -1.256,2.464l5.056,15.556c0.348,0.96 1.384,1.499 2.379,1.212c1.038,-0.298 1.67,-1.4 1.339,-2.42c-0.012,-0.039 -5.054,-15.556 -5.054,-15.556Z" style="fill:#3dba91;fill-rule:nonzero;"/><path d="M20.599,14.962c1.027,-0.334 1.589,-1.437 1.255,-2.464c-0.334,-1.027 -1.437,-1.589 -2.464,-1.256l-15.556,5.057c-0.959,0.347 -1.498,1.383 -1.212,2.378c0.299,1.038 1.401,1.67 2.42,1.339c0.039,-0.012 15.557,-5.054 15.557,-5.054Z" style="fill:#e11665;fill-rule:nonzero;"/><path d="M7.077,19.355c1.012,-0.329 2.317,-0.753 3.718,-1.208c-0.329,-1.012 -0.754,-2.317 -1.208,-3.718l-3.719,1.209l1.209,3.717Z" style="fill:#462a49;fill-rule:nonzero;"/><path d="M14.911,16.81c1.406,-0.457 2.712,-0.881 3.718,-1.208c-0.329,-1.013 -0.753,-2.318 -1.209,-3.719l-3.718,1.208l1.209,3.719Z" style="fill:#ce2027;fill-rule:nonzero;"/><path d="M18.053,7.127c1.027,-0.333 1.589,-1.436 1.256,-2.463c-0.334,-1.027 -1.437,-1.589 -2.464,-1.256l-15.556,5.056c-0.959,0.348 -1.498,1.384 -1.212,2.379c0.298,1.038 1.401,1.67 2.42,1.339c0.039,-0.012 15.556,-5.055 15.556,-5.055Z" style="fill:#71ccdc;fill-rule:nonzero;"/><path d="M4.53,11.521c1.013,-0.329 2.318,-0.753 3.719,-1.208c-0.457,-1.406 -0.881,-2.712 -1.208,-3.718l-3.719,1.208l1.208,3.718Z" style="fill:#1b957e;fill-rule:nonzero;"/><path d="M12.365,8.976c1.406,-0.457 2.712,-0.882 3.718,-1.208c-0.457,-1.407 -0.881,-2.713 -1.208,-3.719l-3.719,1.208l1.209,3.719Z" style="fill:#66873a;fill-rule:nonzero;"/><path d="M36.378,6.173c0.688,0.3 0.738,0.525 0.2,1.551c-0.55,1.051 -0.688,1.113 -1.363,0.838c-0.851,-0.363 -1.939,-0.638 -2.64,-0.638c-1.15,0 -1.913,0.413 -1.913,1.039c0,2.063 6.592,0.95 6.592,5.353c0,2.214 -1.902,3.69 -4.753,3.69c-1.501,0 -3.353,-0.5 -4.629,-1.151c-0.638,-0.325 -0.675,-0.513 -0.125,-1.563c0.476,-0.926 0.626,-1.026 1.314,-0.738c1.088,0.475 2.464,0.838 3.389,0.838c1.051,0 1.752,-0.425 1.752,-1.051c0,-2.001 -6.705,-1.051 -6.705,-5.316c0,-2.264 1.889,-3.778 4.716,-3.778c1.326,0 3.002,0.401 4.165,0.926Z" style="fill:#3c434c;fill-rule:nonzero;"/><path d="M41.695,0.945l0,16.411c0,0.25 -0.263,0.513 -0.638,0.513l-1.727,0c-0.375,0 -0.638,-0.263 -0.638,-0.513l0,-16.411c0,-0.813 0.226,-0.889 1.502,-0.889c1.451,0 1.501,0.1 1.501,0.889Z" style="fill:#3c434c;fill-rule:nonzero;"/><path d="M46.01,14.266c0,0.838 0.713,1.401 1.789,1.401c1.301,0 2.476,-0.625 3.164,-1.689l0,-1.1c-0.688,-0.263 -1.526,-0.413 -2.276,-0.413c-1.601,0 -2.677,0.763 -2.677,1.801Zm7.955,-4.09l0,7.067c0,0.375 -0.262,0.638 -0.637,0.638l-1.702,0c-0.387,0 -0.663,-0.288 -0.638,-0.676l0.025,-0.762c-0.925,1.025 -2.251,1.563 -3.577,1.563c-2.577,0 -4.303,-1.488 -4.303,-3.715c0,-2.364 1.951,-3.953 4.878,-3.965c1.114,0 2.127,0.2 2.952,0.538l0,-0.813c0,-1.301 -1.025,-2.077 -2.764,-2.077c-0.813,0 -1.814,0.325 -2.614,0.788c-0.613,0.351 -0.763,0.326 -1.426,-0.663c-0.651,-0.988 -0.626,-1.175 0,-1.576c1.201,-0.775 2.827,-1.276 4.328,-1.276c3.364,0 5.478,1.827 5.478,4.929Z" style="fill:#3c434c;fill-rule:nonzero;"/><path d="M65.674,6.198c0.625,0.363 0.65,0.563 -0.038,1.626c-0.65,1.001 -0.763,1.063 -1.45,0.713c-0.526,-0.275 -1.364,-0.513 -2.052,-0.513c-2.164,0 -3.602,1.426 -3.602,3.578c0,2.239 1.438,3.74 3.602,3.74c0.751,0 1.689,-0.288 2.302,-0.626c0.625,-0.362 0.763,-0.337 1.426,0.626c0.6,0.9 0.587,1.113 0.05,1.488c-0.964,0.663 -2.49,1.176 -3.828,1.176c-4.003,0 -6.68,-2.564 -6.68,-6.404c0,-3.815 2.677,-6.355 6.705,-6.355c1.226,0 2.664,0.413 3.565,0.951Z" style="fill:#3c434c;fill-rule:nonzero;"/><path d="M78.733,16.317c0.5,0.638 0.3,0.863 -0.951,1.314c-1.275,0.462 -1.45,0.437 -1.901,-0.15l-3.577,-4.779l-1.601,1.551l0,3.103c0,0.25 -0.263,0.513 -0.638,0.513l-1.726,0c-0.376,0 -0.638,-0.263 -0.638,-0.513l0,-16.411c0,-0.813 0.225,-0.889 1.501,-0.889c1.451,0 1.501,0.1 1.501,0.889l0,9.331l4.903,-4.703c0.538,-0.513 0.838,-0.476 1.801,0.162c1.064,0.688 1.139,0.876 0.626,1.376l-3.653,3.553l4.353,5.653Z" style="fill:#3c434c;fill-rule:nonzero;"/></g></svg>